<svg xmlns="http://www.w3.org/2000/svg" data-name="Layer 1" viewBox="0 0 64 64"><path d="M26.023 33.849a1 1 0 0 1-.5-.134L18.745 29.8a1.5 1.5 0 0 1 0-2.6l6.779-3.914a1 1 0 0 1 1 1.733L20.492 28.5l6.032 3.482a1 1 0 0 1-.5 1.867zm11.954 0a1 1 0 0 1-.5-1.867l6.031-3.482-6.032-3.482a1 1 0 0 1 1-1.733l6.779 3.915a1.5 1.5 0 0 1 0 2.6l-6.779 3.914a1 1 0 0 1-.499.135zm6.278-4.918zm-15.524 8.641a1 1 0 0 1-.923-1.383l6.667-16.142a1 1 0 1 1 1.849.764l-6.668 16.142a1 1 0 0 1-.925.619zm-11.82-25.245a1.211 1.211 0 0 1-.671-.171 1.282 1.282 0 0 1-.417-.443 1.875 1.875 0 0 1-.214-.608 3.885 3.885 0 0 1 0-1.349 1.884 1.884 0 0 1 .214-.611 1.279 1.279 0 0 1 .417-.445 1.4 1.4 0 0 1 1.342 0 1.279 1.279 0 0 1 .418.445 1.906 1.906 0 0 1 .213.611 3.878 3.878 0 0 1 .06.673 2.457 2.457 0 0 1-.338 1.386 1.148 1.148 0 0 1-1.024.512zm0-3.149a.471.471 0 0 0-.457.313 2.3 2.3 0 0 0-.149.938 2.284 2.284 0 0 0 .149.939.49.49 0 0 0 .914 0 2.3 2.3 0 0 0 .149-.939 2.322 2.322 0 0 0-.149-.938.471.471 0 0 0-.457-.313zm2.314 2.483h.557V9.3h-.641v-.53a2.291 2.291 0 0 0 .432-.052.785.785 0 0 0 .383-.2h.571v3.139h.561v.616h-1.863zm4.054.666a1.211 1.211 0 0 1-.671-.171 1.282 1.282 0 0 1-.417-.443 1.875 1.875 0 0 1-.214-.608 3.885 3.885 0 0 1 0-1.349 1.884 1.884 0 0 1 .214-.611 1.279 1.279 0 0 1 .417-.442 1.4 1.4 0 0 1 1.342 0 1.279 1.279 0 0 1 .417.442 1.906 1.906 0 0 1 .213.611 3.878 3.878 0 0 1 .06.673 2.457 2.457 0 0 1-.338 1.386 1.148 1.148 0 0 1-1.023.512zm0-3.149a.471.471 0 0 0-.457.313 2.3 2.3 0 0 0-.149.938 2.284 2.284 0 0 0 .149.939.49.49 0 0 0 .914 0 2.3 2.3 0 0 0 .149-.939 2.322 2.322 0 0 0-.149-.938.471.471 0 0 0-.457-.313zm3.531 3.149a1.2 1.2 0 0 1-.67-.171 1.275 1.275 0 0 1-.418-.443 1.874 1.874 0 0 1-.213-.608 3.821 3.821 0 0 1 0-1.349 1.883 1.883 0 0 1 .213-.611 1.272 1.272 0 0 1 .418-.445 1.4 1.4 0 0 1 1.341 0 1.279 1.279 0 0 1 .417.442 1.883 1.883 0 0 1 .213.611 3.878 3.878 0 0 1 .06.673 2.449 2.449 0 0 1-.338 1.386 1.148 1.148 0 0 1-1.023.515zm0-3.149a.471.471 0 0 0-.457.313 2.322 2.322 0 0 0-.149.938 2.3 2.3 0 0 0 .149.939.49.49 0 0 0 .914 0 2.3 2.3 0 0 0 .149-.939 2.322 2.322 0 0 0-.149-.938.471.471 0 0 0-.457-.313zm2.315 2.483h.556V9.3h-.641v-.53a2.281 2.281 0 0 0 .432-.052.785.785 0 0 0 .383-.2h.571v3.139h.561v.616h-1.862zm2.905 0h.557V9.3h-.641v-.53a2.291 2.291 0 0 0 .432-.052.789.789 0 0 0 .383-.2h.571v3.139h.561v.616H32.03zm.27 40.029a1.021 1.021 0 0 0 .336-.157.833.833 0 0 0 .234-.263.755.755 0 0 0 .09-.38.87.87 0 0 0-.276-.7 1.217 1.217 0 0 0-.828-.245H30.38v1.8h1.52a1.455 1.455 0 0 0 .4-.055zm-.4 1.685h-1.52v2.232h1.542a1.445 1.445 0 0 0 .929-.255 1.083 1.083 0 0 0 .313-.884 1.046 1.046 0 0 0-.3-.831 1.513 1.513 0 0 0-.964-.262z"/><path d="M54 43.67V17.376l-.293-.293-14.29-14.29-.293-.293H14a4 4 0 0 0-4 4v33.742a1.991 1.991 0 0 0-1 1.722V56.5a5.006 5.006 0 0 0 5 5h36a5.006 5.006 0 0 0 5-5V45.393a1.991 1.991 0 0 0-1-1.723ZM25.352 57.239h-2.04l-2.364-8.927h1.908l1.44 6.011 1.512-6.011h1.92Zm8.845-.612a4.181 4.181 0 0 1-2.479.612h-3.246v-8.927H31.8a6.078 6.078 0 0 1 1.144.107 2.88 2.88 0 0 1 .988.378 2.018 2.018 0 0 1 .689.726 2.3 2.3 0 0 1 .257 1.14 2.16 2.16 0 0 1-.287 1.105 1.949 1.949 0 0 1-.839.767 2.079 2.079 0 0 1 1.031.84 2.787 2.787 0 0 1 .287 1.32 2.194 2.194 0 0 1-.87 1.932Zm7.475.036a3.586 3.586 0 0 1-2.352.7 3.833 3.833 0 0 1-1.9-.516 3 3 0 0 1-.852-.678 3.986 3.986 0 0 1-.636-1.061l1.6-.7a4.511 4.511 0 0 0 .312.571 1.965 1.965 0 0 0 .384.437 1.643 1.643 0 0 0 .5.282 1.856 1.856 0 0 0 .642.1 2.5 2.5 0 0 0 .492-.048 1.271 1.271 0 0 0 .426-.162.811.811 0 0 0 .294-.312 1.029 1.029 0 0 0 .108-.5.875.875 0 0 0-.456-.744 5.9 5.9 0 0 0-1.212-.6 7.528 7.528 0 0 1-2.076-1.093 2.1 2.1 0 0 1-.72-1.692 2.194 2.194 0 0 1 .84-1.764 3.181 3.181 0 0 1 2.1-.7 3.549 3.549 0 0 1 1.9.516 2.857 2.857 0 0 1 .744.648 4.239 4.239 0 0 1 .588 1.008l-1.764.54a2.466 2.466 0 0 0-.546-.834 1.286 1.286 0 0 0-.93-.318 1.946 1.946 0 0 0-.39.042 1.286 1.286 0 0 0-.36.132.7.7 0 0 0-.366.642.607.607 0 0 0 .114.348 1.128 1.128 0 0 0 .39.324 8.1 8.1 0 0 0 1.3.576 6.23 6.23 0 0 1 1.824.972 2.164 2.164 0 0 1 .852 1.848 2.525 2.525 0 0 1-.85 2.036ZM52 43.393H30.086l-2.4-2.746a2 2 0 0 0-1.505-.683H12V6.5a2 2 0 0 1 2-2h23.71v10.29a4 4 0 0 0 4 4H52Z"/></svg>